<?xml version="1.0" encoding="utf-8"?>
<!-- Generator: Adobe Illustrator 25.0.0, SVG Export Plug-In . SVG Version: 6.00 Build 0)  -->
<svg version="1.1" id="圖層_1" xmlns="http://www.w3.org/2000/svg" xmlns:xlink="http://www.w3.org/1999/xlink" x="0px" y="0px"
	 viewBox="0 0 40 40" style="enable-background:new 0 0 40 40;" xml:space="preserve">
<style type="text/css">
	.st0{fill:#253266;}
</style>
<circle class="st0" cx="20" cy="24" r="2"/>
<path class="st0" d="M17.92,17.06c0-1.97,2.48-4.04,3.63-5.23c0.98-1.01,0.89-2.72-0.32-3.57c-0.72-0.5-1.68-0.53-2.42-0.05
	c-0.64,0.41-0.99,1.06-1.06,1.74c0,0.85-0.07,1.24-0.9,1.24h-2.13c-0.83,0-0.72-0.39-0.72-1.24c0.07-1.74,0.84-3.46,2.33-4.66
	c2.01-1.61,4.86-1.73,6.97-0.27c3.24,2.25,3.57,6.9,0.89,9.55c-0.84,0.83-2.73,2.21-2.73,3.23v1.47c0,0.41-0.23,0.73-0.63,0.73H18.7
	c-0.39,0-0.8-0.33-0.8-0.73v-2.21H17.92z"/>
<path class="st0" d="M14.04,36c-0.21,0-0.43-0.04-0.64-0.12c-0.65-0.26-1.07-0.88-1.07-1.59V31H9.81C7.74,31,6,29.17,6,27V16.84
	C6,14.72,7.71,13,9.81,13h2.11v2H9.81C8.81,15,8,15.83,8,16.84V27c0,1.07,0.85,2,1.81,2h4.52v4.59l4.7-4.59H30c1.01,0,2-0.99,2-2
	V16.84c0-1.01-0.81-1.84-1.81-1.84h-2.11v-2h2.11c2.1,0,3.81,1.72,3.81,3.84V27c0,2.13-1.87,4-4,4H19.85l-4.61,4.5
	C14.93,35.82,14.49,36,14.04,36z M13.83,34.08c0,0-0.01,0.01-0.01,0.01L13.83,34.08z"/>
</svg>
