<?xml version="1.0" encoding="utf-8"?>
<!-- Generator: Adobe Illustrator 25.0.0, SVG Export Plug-In . SVG Version: 6.00 Build 0)  -->
<svg version="1.1" id="圖層_1" xmlns="http://www.w3.org/2000/svg" xmlns:xlink="http://www.w3.org/1999/xlink" x="0px" y="0px"
	 viewBox="0 0 40 40" style="enable-background:new 0 0 40 40;" xml:space="preserve">
<style type="text/css">
	.st0{fill:#253266;}
</style>
<g>
	<path class="st0" d="M12.95,7.16c-0.55,0-0.99,0.44-0.99,0.99s0.44,0.99,0.99,0.99h5.21c0.55,0,0.99-0.44,0.99-0.99
		s-0.44-0.99-0.99-0.99H12.95z"/>
	<path class="st0" d="M24.14,29.73H7.99V7.74c0-0.97,0.79-1.75,1.75-1.75H21.4c0.87,0,1.62,0.66,1.73,1.54
		c0.07,0.54,0.56,0.93,1.11,0.86c0.54-0.07,0.93-0.56,0.86-1.11C24.86,5.41,23.27,4,21.4,4H9.74C7.68,4,6,5.68,6,7.74v22.98v1.54
		C6,34.32,7.68,36,9.74,36H21.4c2.06,0,3.74-1.68,3.74-3.74v-1.54C25.14,30.17,24.69,29.73,24.14,29.73z M23.14,32.26
		c0,0.97-0.79,1.75-1.75,1.75H9.73c-0.97,0-1.75-0.79-1.75-1.75v-0.55h15.17V32.26z"/>
	<path class="st0" d="M24.48,10.03c-5.19,0-9.42,4.22-9.42,9.42c0,1.72,0.46,3.38,1.34,4.85l-0.64,2.67
		c-0.08,0.34,0.02,0.69,0.26,0.93c0.24,0.24,0.6,0.35,0.93,0.26l2.67-0.64c1.46,0.88,3.13,1.34,4.85,1.34
		c5.19,0,9.42-4.22,9.42-9.42C33.9,14.25,29.67,10.03,24.48,10.03z M24.48,26.88c-1.47,0-2.9-0.43-4.12-1.25
		c-0.16-0.11-0.36-0.17-0.55-0.17c-0.08,0-0.16,0.01-0.23,0.03l-1.51,0.36l0.36-1.51c0.06-0.27,0.01-0.55-0.14-0.78
		c-0.82-1.22-1.25-2.64-1.25-4.12c0-4.1,3.33-7.43,7.43-7.43c4.1,0,7.43,3.33,7.43,7.43C31.91,23.55,28.58,26.88,24.48,26.88z"/>
	<path class="st0" d="M27.37,19.25l-2.13,2.28v-6.35c0-0.49-0.4-0.89-0.89-0.89c-0.49,0-0.89,0.4-0.89,0.89v6.35l-2.13-2.28
		c-0.34-0.36-0.9-0.38-1.26-0.05c-0.36,0.34-0.38,0.9-0.05,1.26l3.67,3.93c0.34,0.36,0.9,0.38,1.26,0.05
		c0.02-0.01,0.03-0.03,0.05-0.05c1.22-1.31,2.45-2.62,3.67-3.93c0.34-0.36,0.32-0.93-0.05-1.26C28.27,18.87,27.71,18.89,27.37,19.25
		z"/>
</g>
</svg>
