<?xml version="1.0" encoding="utf-8"?>
<!-- Generator: Adobe Illustrator 25.0.0, SVG Export Plug-In . SVG Version: 6.00 Build 0)  -->
<svg version="1.1" id="圖層_1" xmlns="http://www.w3.org/2000/svg" xmlns:xlink="http://www.w3.org/1999/xlink" x="0px" y="0px"
	 viewBox="0 0 40 40" style="enable-background:new 0 0 40 40;" xml:space="preserve">
<style type="text/css">
	.st0{fill:#253266;}
</style>
<path class="st0" d="M6,14.56c0,3.6,1.65,6.2,4.56,7.25v10.85L13.38,36h4.34v-4.18l-1.3-1.04v-0.14l1.3-1.25v-1.71l-1.3-1.49V26
	l1.3-1.04v-1.59h0.33c1.07,0,2.05-0.18,2.91-0.53l7.64,7.88h4.15l2.91-3.13l-2.57-2.81h-1.7v-1.87l-1.7-1.43h-1.56V19.6l-2.6-2.56
	c0.44-2.43-0.36-4.99-2.15-6.81c-0.04-0.05-0.09-0.09-0.14-0.13V9.28c0-2.91-2.34-5.28-5.21-5.28C16,4,14.22,5.22,13.37,6.98
	C9.23,7.04,6,10.34,6,14.56z M12.84,12.58h1.3v-0.73c0.2,0.18,0.33,0.44,0.33,0.73c0,0.55-0.44,0.99-0.98,0.99
	c-0.54,0-0.98-0.44-0.98-0.99c0-0.29,0.13-0.55,0.33-0.73V12.58z M21.95,9.09c-0.7-0.43-1.47-0.74-2.27-0.92l-0.14-0.03l-1.82,0.12
	c-0.86-0.59-1.85-0.99-2.93-1.17c0.7-1.06,1.9-1.77,3.25-1.77C20.15,5.32,21.85,6.99,21.95,9.09z M17.73,21.38v-0.5
	c1.07-1.02,3.26-3.47,3.26-6.33c0-1.62-0.48-3.11-1.31-4.33c0.88,0.27,1.69,0.74,2.35,1.41c1.44,1.46,2.02,3.56,1.52,5.48
	l-0.15,0.56l2.81,2.77v1.81l0.53,1.22h2.28l0.45,0.38v1.86l0.72,1.06h2.08L33,27.58l-1.08,1.16h-2.49l-8.07-8.32l-0.65,0.35
	c-0.74,0.41-1.62,0.61-2.66,0.61H17.73z M7.95,14.56c0-2.93,2.11-5.26,4.9-5.57c-0.01,0.1-0.01,0.19-0.01,0.29v0.41
	c-1.3,0.3-2.28,1.48-2.28,2.89c0,1.64,1.32,2.97,2.93,2.97s2.93-1.33,2.93-2.97c0-1.41-0.98-2.59-2.28-2.89V9.28
	c0-0.1,0.01-0.19,0.01-0.29c2.78,0.32,4.87,2.65,4.87,5.57c0,1.89-1.51,3.9-2.92,5.15L15.77,20v4l-1.3,1.04v1.9l1.3,1.49v0.11
	l-1.3,1.25v1.95l1.3,1.04v1.24h-1.49l-1.77-2.1V20.29l-0.74-0.19C8.62,19.31,7.95,16.65,7.95,14.56z"/>
</svg>
