<?xml version="1.0" encoding="utf-8"?>
<!-- Generator: Adobe Illustrator 25.0.0, SVG Export Plug-In . SVG Version: 6.00 Build 0)  -->
<svg version="1.1" id="圖層_1" xmlns="http://www.w3.org/2000/svg" xmlns:xlink="http://www.w3.org/1999/xlink" x="0px" y="0px"
	 viewBox="0 0 40 40" style="enable-background:new 0 0 40 40;" xml:space="preserve">
<style type="text/css">
	.st0{fill-rule:evenodd;clip-rule:evenodd;fill:#253266;}
</style>
<path class="st0" d="M24.53,20.66C31.07,22.64,35.79,28.81,36,36h-1.91C33.84,28.29,27.74,21.91,20,21.91
	c-7.74,0-13.84,6.38-14.09,14.09H4c0.21-7.19,4.93-13.36,11.47-15.35c-2.6-1.56-4.34-4.43-4.34-7.7C11.13,8.01,15.1,4,20,4
	c4.9,0,8.87,4.01,8.87,8.96C28.87,16.23,27.13,19.09,24.53,20.66L24.53,20.66z M20,5.93c-3.85,0-6.97,3.15-6.97,7.03
	c0,3.89,3.12,7.03,6.97,7.03c3.85,0,6.97-3.15,6.97-7.03C26.97,9.07,23.85,5.93,20,5.93z"/>
</svg>
