<?xml version="1.0" encoding="utf-8"?>
<!-- Generator: Adobe Illustrator 25.0.0, SVG Export Plug-In . SVG Version: 6.00 Build 0)  -->
<svg version="1.1" id="圖層_1" xmlns="http://www.w3.org/2000/svg" xmlns:xlink="http://www.w3.org/1999/xlink" x="0px" y="0px"
	 viewBox="0 0 100 100" style="enable-background:new 0 0 100 100;" xml:space="preserve">
<style type="text/css">
	.st0{fill:#FFFFFF;}
</style>
<path class="st0" d="M15.08,36.69c0,8.96,4.15,15.42,11.48,18.01v26.99L33.67,90h10.94V79.58l-3.28-2.59v-0.34l3.28-3.11V69.3
	l-3.28-3.71v-0.47l3.28-2.59v-3.95h0.84c2.69-0.01,5.15-0.44,7.33-1.31l19.24,19.6h10.46l7.32-7.79l-6.48-6.97h-4.27v-4.64
	l-4.28-3.56h-3.93v-4.69l-6.54-6.37c1.1-6.05-0.91-12.42-5.41-16.92c-0.11-0.12-0.23-0.22-0.35-0.33v-2.04
	c0-7.23-5.88-13.12-13.12-13.12c-5.18,0-9.66,3.03-11.79,7.4C23.2,18,15.08,26.22,15.08,36.69z M32.3,31.77h3.28v-1.82
	c0.5,0.45,0.82,1.1,0.82,1.82c0,1.36-1.1,2.46-2.46,2.46s-2.46-1.1-2.46-2.46c0-0.72,0.32-1.37,0.82-1.82V31.77z M55.24,23.1
	c-1.76-1.07-3.69-1.85-5.72-2.29l-0.34-0.07l-4.58,0.31c-2.16-1.46-4.66-2.46-7.37-2.92c1.77-2.65,4.78-4.4,8.19-4.4
	C50.69,13.73,54.99,17.89,55.24,23.1z M44.61,53.67v-1.24c2.69-2.54,8.2-8.61,8.2-15.73c0-4.04-1.22-7.74-3.3-10.78
	c2.22,0.66,4.25,1.84,5.91,3.5c3.63,3.62,5.09,8.84,3.82,13.61l-0.37,1.39l7.06,6.88v4.5l1.33,3.04H73l1.13,0.94v4.63l1.81,2.63
	h5.24l1.89,2.03l-2.72,2.89h-6.27L53.77,51.28l-1.63,0.88c-1.87,1.02-4.06,1.51-6.7,1.51H44.61z M19.99,36.69
	c0-7.28,5.3-13.08,12.34-13.85c-0.02,0.25-0.04,0.48-0.04,0.73v1.02c-3.28,0.75-5.74,3.68-5.74,7.18c0,4.07,3.31,7.38,7.38,7.38
	s7.38-3.31,7.38-7.38c0-3.5-2.46-6.43-5.74-7.18v-1.02c0-0.25,0.02-0.48,0.04-0.72c7,0.81,12.27,6.59,12.27,13.84
	c0,4.7-3.8,9.69-7.36,12.8l-0.84,0.74l0,9.94l-3.28,2.59v4.72l3.28,3.71v0.26l-3.28,3.11v4.84l3.28,2.59v3.09h-3.75l-4.45-5.21
	V50.95l-1.87-0.46C21.25,48.41,20,40.95,19.99,36.69z"/>
</svg>
