<?xml version="1.0" encoding="utf-8"?>
<!-- Generator: Adobe Illustrator 25.0.0, SVG Export Plug-In . SVG Version: 6.00 Build 0)  -->
<svg version="1.1" id="圖層_1" xmlns="http://www.w3.org/2000/svg" xmlns:xlink="http://www.w3.org/1999/xlink" x="0px" y="0px"
	 viewBox="0 0 100 100" style="enable-background:new 0 0 100 100;" xml:space="preserve">
<style type="text/css">
	.st0{fill-rule:evenodd;clip-rule:evenodd;fill:#FFFFFF;}
</style>
<path class="st0" d="M60.72,52.04C76.19,56.69,87.35,71.15,87.84,88h-4.51C82.74,69.92,68.31,54.98,50,54.98
	c-18.31,0-32.74,14.95-33.33,33.02h-4.51c0.49-16.85,11.66-31.31,27.13-35.97c-6.15-3.66-10.27-10.37-10.27-18.05
	C29.01,22.4,38.41,13,50,13c11.58,0,20.99,9.41,20.99,20.99C70.99,41.66,66.87,48.37,60.72,52.04L60.72,52.04z M50,17.51
	c-9.1,0-16.48,7.38-16.48,16.48c0,9.11,7.37,16.48,16.48,16.48c9.1,0,16.48-7.38,16.48-16.48C66.48,24.88,59.11,17.51,50,17.51z"/>
</svg>
