<?xml version="1.0" encoding="utf-8"?>
<!-- Generator: Adobe Illustrator 26.2.1, SVG Export Plug-In . SVG Version: 6.00 Build 0)  -->
<svg version="1.1" id="圖層_1" xmlns="http://www.w3.org/2000/svg" xmlns:xlink="http://www.w3.org/1999/xlink" x="0px" y="0px"
	 viewBox="0 0 458.4 104.2" style="enable-background:new 0 0 458.4 104.2;" xml:space="preserve">
<style type="text/css">
	.st0{fill:#3D3D3D;}
	.st1{fill:#910018;}
	.st2{fill:#EE1629;}
</style>
<g>
	<g>
		<path class="st0" d="M90.1,79.7V44.8h-8.9V34.7h29.3v10.1h-8.9v34.9C101.6,79.7,90.1,79.7,90.1,79.7z"/>
		<path class="st0" d="M113.4,79.7v-45h14.2c1.9,0,3.5,0.1,4.9,0.2c1.4,0.1,2.6,0.3,3.7,0.5c1.1,0.2,2,0.6,2.8,1s1.6,0.9,2.4,1.6
			c1.7,1.4,3.1,3.2,4,5.4c1,2.2,1.5,4.5,1.5,7c0,3.7-1,6.9-3,9.4c-2,2.5-4.7,4.1-8.2,4.7L148,79.7h-13.2l-10.5-14.6v14.6H113.4z
			 M124.4,57.3h4c2.4,0,4.3-0.5,5.6-1.7c1.3-1.1,1.9-2.7,1.9-4.7s-0.6-3.6-1.9-4.6c-1.3-1-3.1-1.6-5.5-1.6h-4.2L124.4,57.3
			L124.4,57.3z"/>
		<path class="st0" d="M151.6,79.7v-45h25v10.1h-14v7h13.6v10.1h-13.6v7.7h14v10.1C176.6,79.7,151.6,79.7,151.6,79.7z"/>
		<path class="st0" d="M207.4,34.7h13L206.6,56l15.6,23.8h-13l-9.7-15.9l-9.2,15.9h-12.8l15.7-24l-13.9-21.1h13l7.7,12.9L207.4,34.7
			z"/>
		<path class="st0" d="M290.6,79.7h-6.3V61c0-6.7-2.7-10.1-8-10.1c-2.6,0-4.9,1-6.3,2.7c-1.3,1.8-1.8,3.4-1.8,7.4v18.8H262V61
			c0-7.2-2.2-10.1-7.7-10.1c-2.5,0-4.8,0.9-6.3,2.6c-1.6,1.8-2,3.4-2,7.6v18.8h-6.3V46h5.9v3.6c2.4-3.2,5.5-4.5,9.7-4.5
			c4.7,0,8.9,2.3,10.5,5.6c2.5-3.9,5.9-5.6,11.1-5.6c8.5,0,13.7,5.3,13.7,14V79.7z"/>
		<path class="st0" d="M330.9,79.7h-5.8v-5.3c-1.3,2-2,2.7-3.6,3.7c-2.6,1.6-5.7,2.4-9,2.4c-9.8,0-17.2-7.6-17.2-17.6
			c0-10.3,7.6-17.9,17.6-17.9c5.1,0,10.1,2.3,12.3,5.7V46h5.8L330.9,79.7L330.9,79.7z M324.6,63c0-6.7-5.1-12.1-11.6-12.1
			c-6.4,0-11.5,5.3-11.5,12.1c0,6.5,5.2,11.9,11.5,11.9C319.4,74.9,324.6,69.5,324.6,63z"/>
		<path class="st0" d="M343.9,79.7h-6.3V46h5.9v3c2.2-2.6,4.7-3.8,8.7-3.9v6.5c-5.7,0.5-8.3,3.4-8.3,9.7L343.9,79.7L343.9,79.7z"/>
		<path class="st0" d="M374.2,46h7.5l-12.2,15.9l14.1,17.8h-7.9L362,62.3v17.5h-6.3v-45h6.3v27.5L374.2,46z"/>
		<path class="st0" d="M416.1,69.1c-2.6,7-8.8,11.5-16.1,11.5c-9.4,0-17.2-8-17.2-17.8c0-9.9,7.7-18,17.3-18
			c9.4,0,17.1,7.9,17.1,17.5c0,0.7-0.1,1.8-0.2,3.2h-27.9c1.4,5.6,5.7,9.2,11.1,9.2c4,0,7.4-2,9.5-5.7L416.1,69.1L416.1,69.1z
			 M389.1,60.8h21.8c-0.3-5.6-5.2-10.1-10.9-10.1c-3.1,0-6.3,1.3-8.3,3.6C390.1,56.1,389.6,57.5,389.1,60.8z"/>
		<path class="st0" d="M429.2,51.7v28h-6.3v-28h-4.6V46h4.6V34.7h6.3V46h5.5v5.7H429.2z"/>
		<path class="st0" d="M458.4,55h-6.3c-0.4-2.8-1.8-4.1-4.2-4.1c-2.4,0-4.2,1.6-4.2,3.6c0,2.2,1,3,5.3,4.3c3.9,1.1,6.1,2.5,7.8,4.5
			c1.6,1.9,2.4,4.2,2.4,6.5c0,5.9-5.3,10.8-11.7,10.8c-6.9,0-11.4-4.7-11.5-11.9h6.3c0.3,4,2.2,6.1,5.5,6.1c3,0,5.1-1.8,5.1-4.4
			s-1.3-3.8-5.9-5.3c-4.1-1.4-5.9-2.4-7.4-4s-2.2-3.4-2.2-5.5c0-6,4.5-10.5,10.7-10.5C454,45.1,458.3,49.2,458.4,55z"/>
	</g>
	<g>
		<g>
			<path class="st1" d="M34.7,86.8V34.7H0v52.1c0,9.6,7.8,17.4,17.4,17.4l0,0C27,104.2,34.7,96.4,34.7,86.8z"/>
		</g>
	</g>
	<path class="st2" d="M52.1,34.7H0V0h52.1c9.6,0,17.4,7.8,17.4,17.4l0,0C69.5,27,61.7,34.7,52.1,34.7z"/>
</g>
</svg>
